<?xml version="1.0" standalone="no"?>
<!DOCTYPE svg PUBLIC "-//W3C//DTD SVG 1.1//EN" "http://www.w3.org/Graphics/SVG/1.1/DTD/svg11.dtd" >
<svg xmlns="http://www.w3.org/2000/svg" xmlns:xlink="http://www.w3.org/1999/xlink" version="1.1">
<metadata></metadata>
<defs>
<font id="sansa_ding_bet2regular" horiz-adv-x="1705" >
<font-face units-per-em="2048" ascent="1536" descent="-512" />
<missing-glyph horiz-adv-x="1024" />
<glyph horiz-adv-x="0" />
<glyph horiz-adv-x="682" />
<glyph horiz-adv-x="0" />
<glyph horiz-adv-x="0" />
<glyph unicode="&#xd;" horiz-adv-x="1024" />
<glyph unicode=" "  horiz-adv-x="1024" />
<glyph unicode="&#x09;" horiz-adv-x="1024" />
<glyph unicode="&#xa0;" horiz-adv-x="1024" />
<glyph unicode="!" d="M242 401q0 69 46.5 115.5t112.5 46.5q69 0 115.5 -46.5t46.5 -115.5q0 -66 -46.5 -111.5t-115.5 -45.5q-66 0 -112.5 45.5t-46.5 111.5zM242 854q0 66 46.5 113t112.5 47q69 0 115.5 -47t46.5 -113q0 -65 -47 -111.5t-115 -46.5q-66 0 -112.5 46.5t-46.5 111.5zM242 1305 q0 66 46.5 111.5t112.5 45.5q69 0 115.5 -45.5t46.5 -111.5q0 -69 -46.5 -115.5t-115.5 -46.5q-66 0 -112.5 46.5t-46.5 115.5zM295 401q0 -42 32 -74t74 -32q45 0 76 32t31 74q0 46 -30.5 76.5t-76.5 30.5q-43 0 -74.5 -31t-31.5 -76zM295 854q0 -43 31.5 -74.5t74.5 -31.5 q45 0 76 31.5t31 74.5t-31 75t-76 32q-43 0 -74.5 -32t-31.5 -75zM295 1305q0 -45 31.5 -76t74.5 -31q46 0 76.5 30.5t30.5 76.5q0 43 -31 74.5t-76 31.5q-43 0 -74.5 -31.5t-31.5 -74.5zM696 401q0 69 45.5 115.5t110.5 46.5q66 0 113 -46.5t47 -115.5q0 -66 -47 -111.5 t-113 -45.5q-65 0 -110.5 45.5t-45.5 111.5zM696 854q0 66 46 113t110 47q66 0 113 -47t47 -113q0 -65 -47 -111.5t-113 -46.5q-64 0 -110 46.5t-46 111.5zM696 1305q0 66 45.5 111.5t110.5 45.5q66 0 113 -45.5t47 -111.5q0 -69 -47 -115.5t-113 -46.5q-65 0 -110.5 46.5 t-45.5 115.5zM748 401q0 -42 31 -74t73 -32q44 0 75 32t31 74q0 45 -31 76t-75 31q-43 0 -73.5 -31t-30.5 -76zM748 854q0 -43 30.5 -74.5t73.5 -31.5q44 0 75 31.5t31 74.5t-31 75t-75 32q-42 0 -73 -32t-31 -75zM748 1305q0 -45 30.5 -76t73.5 -31q44 0 75 31t31 76 q0 43 -31 74.5t-75 31.5q-43 0 -73.5 -31.5t-30.5 -74.5zM1145 401q0 69 46 115.5t114 46.5q66 0 112.5 -46.5t46.5 -115.5q0 -66 -46.5 -111.5t-112.5 -45.5q-67 0 -113.5 45.5t-46.5 111.5zM1145 854q0 66 46.5 113t113.5 47q66 0 112.5 -47t46.5 -113q0 -65 -46.5 -111.5 t-112.5 -46.5q-67 0 -113.5 46.5t-46.5 111.5zM1145 1305q0 66 46.5 111.5t113.5 45.5q66 0 112.5 -45.5t46.5 -111.5q0 -69 -46.5 -115.5t-112.5 -46.5q-68 0 -114 46.5t-46 115.5zM1198 401q0 -43 30.5 -74.5t76.5 -31.5q42 0 74 32t32 74q0 45 -31.5 76t-74.5 31 q-47 0 -77 -30.5t-30 -76.5zM1198 854q0 -44 30.5 -75t76.5 -31q43 0 74.5 31.5t31.5 74.5t-31.5 75t-74.5 32q-46 0 -76.5 -31.5t-30.5 -75.5zM1198 1305q0 -46 30 -76.5t77 -30.5q43 0 74.5 31t31.5 76q0 43 -31.5 74.5t-74.5 31.5q-46 0 -76.5 -31t-30.5 -75z" />
<glyph unicode="#" d="M205 520v727q0 44 32.5 77.5t75.5 33.5h1080q43 0 75.5 -33.5t32.5 -77.5v-727q0 -43 -32.5 -75.5t-75.5 -32.5h-107v-224l-215 224h-758q-43 0 -75.5 32.5t-32.5 75.5zM260 520q0 -22 15.5 -37.5t37.5 -15.5h758h23l18 -16l119 -125v86v55h55h107q22 0 37.5 15.5 t15.5 37.5v727q0 22 -15.5 37.5t-37.5 15.5h-1080q-22 0 -37.5 -15.5t-15.5 -37.5v-727zM588 885q0 23 16 39t39 16t39 -16t16 -39q0 -24 -16 -41t-39 -17t-39 17t-16 41zM797 885q0 23 16.5 39t38.5 16q23 0 39 -16t16 -39q0 -24 -16 -41t-39 -17q-22 0 -38.5 17.5 t-16.5 40.5zM1016 885q0 24 14.5 39.5t38.5 15.5q22 0 37.5 -16t15.5 -39t-15.5 -40.5t-37.5 -17.5q-24 0 -38.5 17t-14.5 41z" />
<glyph unicode="$" d="M360 348v1010q0 41 32.5 71.5t78.5 30.5h762q44 0 77 -30.5t33 -71.5v-1010q0 -42 -32.5 -72t-77.5 -30h-762q-46 0 -78.5 29.5t-32.5 72.5zM414 348q0 -22 16.5 -37.5t40.5 -15.5h762q22 0 38.5 15.5t16.5 37.5v1010q0 21 -16.5 36t-38.5 15h-762q-25 0 -41 -14.5 t-16 -36.5v-1010zM471 348v203h53v-51v-103h109h53v-49h-215zM471 598v205h53v-51v-101h109h53v-53h-215zM471 852v203h53v-49v-103h109h53v-51h-215zM471 1130v203h762v-203h-762zM524 1182h654v102h-654v-102zM743 348v203h54v-51v-103h108h56v-49h-218zM743 598v205h54 v-51v-101h108h56v-53h-218zM743 852v203h54v-49v-103h108h56v-51h-218zM1016 348v455h55v-303v-103h107h55v-49h-217zM1016 852v203h55v-49v-103h107h55v-51h-217z" />
<glyph unicode="%" horiz-adv-x="1179" d="M61 166v571v662v10l11 8q8 6 26.5 13.5t78 17.5t138.5 10q94 0 250 -35q13 -2 47.5 -8.5t53 -9.5t47 -7t54 -5.5t50.5 -1.5q74 0 142.5 9t100.5 17t32 10l41 15v-711l-19 -6q-123 -41 -297 -41q-101 0 -264 35q-156 35 -238 35q-132 0 -194 -27v-561h-60zM121 788 q77 25 194 25q86 0 250 -37q8 -2 40 -8t43.5 -8.5t39 -7t44.5 -6.5t40.5 -3.5t44.5 -1.5q127 0 256 33v586q-118 -29 -256 -29q-91 0 -264 37q-165 33 -238 33q-132 0 -194 -27v-586z" />
<glyph unicode="&#x26;" d="M150 356v985h18h29h10h1292h8h49v-985h-1406zM205 457l368 399l-368 401v-800zM252 418h1202l-358 397l-158 -174q-39 -39 -86 -39q-45 0 -84 39l-158 174zM262 1282l543 -598q20 -20 48.5 -20t47.5 20l543 598h-1182zM1133 856l368 -399v800z" />
<glyph unicode="'" d="M172 852q0 138 54 264t145.5 217t217.5 145t263 54t260.5 -53t218.5 -146l-39 -39q-87 87 -200 135t-240 48q-169 0 -313 -84t-228 -228t-84 -313t84 -313t228 -228t313 -84q127 0 240 48t200 135l39 -39q-95 -93 -218.5 -146t-260.5 -53t-263 54t-217.5 145t-145.5 217 t-54 264zM610 717v272h221l185 182v-639l-185 185h-221zM662 772h169h23l14 -16l95 -92v378l-95 -94l-14 -14h-23h-169v-162zM1092 676q59 71 59 176t-59 176l43 35q69 -90 69 -211q0 -117 -69 -211zM1221 578q92 122 92 274q0 154 -92 276l47 31q100 -133 100 -307 q0 -172 -100 -305zM1354 481q123 162 123 371q0 208 -123 373l43 32q135 -177 135 -405q0 -225 -135 -406z" />
<glyph unicode="*" d="M186 307q-9 28 9 53q9 25 32 60q381 672 541 958q20 28 35 41q20 17 45 16t45 -20q30 -36 33 -39q137 -244 575 -1005q1 -3 5.5 -15t6.5 -20q7 -31 -8.5 -52.5t-44.5 -21.5h-18h-590h-600q-23 0 -41.5 12.5t-24.5 32.5zM283 350h1132q-475 825 -569 991 q-217 -388 -563 -991zM754 969v39q7 25 29 45t48 26q36 8 72 -14t43 -61q2 -6 2 -19q-4 -21 -6 -41q-2 -11 -5 -34.5t-5 -35.5q-4 -30 -8 -71q-3 -14 -13 -74q-3 -20 -8 -72q-1 -3 -2 -9t-2 -11l-2 -10q-11 -34 -33 -39q-33 -11 -49 18q-14 14 -14 43q-8 51 -10 74l-7 35 t-6 39q-3 42 -12 86q-12 84 -12 86zM782 481q3 30 24.5 49t47.5 17q24 -2 42.5 -20t18.5 -48q0 -32 -19.5 -50.5t-45.5 -18.5q-27 0 -47.5 20t-20.5 51z" />
<glyph unicode="+" d="M477 819v68h340v338h70v-338h338v-68h-338v-338h-70v338h-340z" />
<glyph unicode="," d="M182 854q-1 133 50.5 255.5t140 214t214 146t265.5 54.5q186 0 341 -91.5t243 -246.5t86 -336q-1 -179 -89.5 -332t-242 -243.5t-336.5 -90.5q-139 -1 -264.5 53t-215 145t-141.5 214.5t-51 257.5zM276 756q38 -221 213 -361q132 -106 310 -125q121 -9 231 27 q175 54 297 213q2 4 8 15t8 18q17 43 17 78q0 43 -12 86q-42 3 -70 -19q-5 -4 -20 -15.5t-23 -17.5q-31 -16 -59 4q-37 27 -43 72q0 2 -1.5 6t-1.5 6q-11 69 -2 109q9 31 31 98q3 29 27 41q69 42 71 43q20 -33 74 -33v39l31 25q4 23 -4 33.5t-31 13.5q-5 1 -16.5 3t-16.5 3 q-2 -6 -2 -18q-15 -4 -39 4q-12 2 -36 10q4 -3 18 -12t20 -14t12 -15.5t7 -23.5q-3 0 -7.5 1t-6.5 1q-3 11 -4.5 16t-7 11t-13.5 9q-25 -6 -49 -43q2 -4 5 -11t5 -11q-6 -4 -24.5 -19.5t-30.5 -21.5q-13 33 -21 63q4 2 29 17q-1 5 -3 14.5t-3 14.5q-2 0 -31 10q9 9 15 22 t7.5 21.5t2.5 25.5t2 23q2 2 12.5 9.5t15.5 12.5q-11 23 -16 39q-3 8 -6 23l-4 20q-9 -5 -12 -8t-7 -16q-18 18 -23.5 20.5t-17.5 -2.5q8 -8 17 -14q4 -5 15 -17.5t15 -17.5q17 -23 -10 -41q-1 5 -4.5 13.5t-3.5 9.5q-3 -3 -6.5 -8t-5.5 -7q-19 8 -25 29q-2 12 -12 49 q-12 9 -17 14q5 30 5 33q4 1 14.5 4t17.5 4q-2 6 -5 17.5t-5 17.5q-13 3 -20 8q-43 13 -64 27q-41 24 -82 27q-82 4 -141 -4q-50 -8 -105 -27q-3 -11 -26 -51h24q11 0 27 4q22 3 35 -10q6 -6 18.5 -16.5t18.5 -16.5q-8 -21 3.5 -53t12.5 -37q-11 -11 -35 -31q-4 5 -14 16 t-14 17q-50 10 -58 12q-33 -16 -41.5 -25.5t-5.5 -33.5q31 -20 17 -70q4 -2 10 -2h6q5 24 27.5 58t25.5 40q18 -10 23 -16v-23q5 1 14 3.5t14 3.5q8 -23 22.5 -68t22.5 -68q-17 4 -34 15q1 4 4 11t4 11q-37 4 -58 0q6 -9 16 -23t13 -18q-1 0 -3 -1t-3 -1q-98 -36 -102 -37 q-34 -9 -31 -47q0 -2 -2 -4q-9 -3 -23 -10q-32 -8 -32 -49q2 -6 2 -15q0 -14 -2 -24l-15 5l-10 3v55q-5 2 -21.5 12t-25.5 13q-29 9 -47.5 -3t-18.5 -40q0 -20 4 -66q6 2 14.5 6t14 6t13 2t14.5 -5q-15 -40 -19 -52q12 -6 13 -6q17 -11 20 -33q0 -18 2 -26q0 -3 1 -10t1 -9 q13 -4 31 -8q15 -8 37 -4q43 7 73 -6q21 -8 59.5 -23t41.5 -16q14 -6 39.5 -18.5t38.5 -18.5q-6 -10 -9 -20q24 -6 51 -16t59.5 -23.5t49.5 -20.5q-20 -20 -28 -55q0 -3 -2.5 -9.5t-2.5 -10.5q-13 -47 -59 -50q-47 -3 -78 -39q-4 -4 -6 -4q-29 -25 -47 -34q-48 -20 -74 22 q-21 31 -28 55q-23 58 -66 88q-44 38 -68 93q0 1 -2.5 10t-2 11t2.5 13q12 9 33 23q-1 5 -3 13.5t-3 13.5q-24 -5 -41 22q-1 1 -3 4t-3 4q-40 46 -41 47q-2 3 -7 9.5t-7 9.5q-23 54 -62 88q-4 12 -4 18q-2 14 -5 43.5t-5 44.5q0 6 -1.5 24.5t-0.5 27.5q2 19 9.5 54.5 t8.5 41.5q2 9 5 28.5t5 28.5h-4q-16 -23 -28 -49q-83 -164 -52 -356z" />
<glyph unicode="-" d="M477 819v68h748v-68h-748z" />
<glyph unicode="." d="M211 537q16 93 63 153q7 12 43 53q82 80 240 238q63 66 139 86q75 25 148 14q92 -15 160 -77q33 -33 24 -80t-63 -62q-37 -6 -66 17q-5 3 -15.5 13t-17.5 13q-62 35 -139 2q-20 -8 -53 -37q-41 -41 -123 -123.5t-123 -123.5q-44 -44 -53 -103q-9 -56 22 -99t84 -52 q63 -14 127 34q16 12 27 23l125 125q4 6 8 10q97 -54 205 -31q-2 -1 -5 -3l-4.5 -3t-2.5 -2q-32 -31 -67.5 -66.5t-78.5 -79t-67 -67.5q-49 -49 -101 -73q-55 -25 -110 -31q-86 -6 -158 26q-86 41 -135 131q-43 81 -33 175zM686 784q17 44 68 47q37 0 57 -20q38 -29 61 -35 q70 -17 136 27q18 14 26 24q82 80 244 242q43 43 51 90q15 55 -13 104t-81 60q-68 19 -133 -29q-15 -12 -27 -24q-14 -14 -40.5 -40t-47.5 -47t-39 -40l-10 -10q-97 54 -197 30q1 2 7 8q36 36 106.5 107.5t106.5 107.5q78 75 157 93q156 41 277 -62q77 -68 98 -166 q12 -80 -12 -157q-22 -74 -86 -138q-122 -122 -248 -245q-58 -61 -137 -88q-83 -21 -144 -11q-74 9 -139 58q-22 19 -33 32q-30 37 -8 82z" />
<glyph unicode="/" d="M203 854q0 176 87 326t236.5 237.5t325.5 87.5t326.5 -87.5t238.5 -237.5t88 -326t-88 -326t-238.5 -237.5t-326.5 -87.5t-325.5 87.5t-236.5 237.5t-87 326zM328 854q0 -142 70 -263t190.5 -191t263.5 -70t264 70t191.5 191t70.5 263q0 143 -70.5 263.5t-191.5 190.5 t-264 70t-263.5 -70t-190.5 -190.5t-70 -263.5zM502 762l88 -90l262 262l262 -262l88 90l-350 350z" />
<glyph unicode="0" d="M324 152v727h184v323q0 145 100.5 247.5t241.5 102.5q142 0 243 -102.5t101 -247.5v-106h-51v106q0 123 -86.5 210t-206.5 87q-119 0 -205 -87t-86 -210v-323h821v-727h-1056zM375 205h952v618h-952v-618z" />
<glyph unicode="1" d="M205 389v62h1296v-62h-1296zM205 823v60h1296v-60h-1296zM205 1255v62h1296v-62h-1296z" />
<glyph unicode="2" d="M258 205v788l594 578l596 -578v-788h-449v55v74v354h-292v-354v-74v-55h-449zM311 260h340v483h406v-483h334v709l-539 524l-541 -524v-709z" />
<glyph unicode="3" d="M348 852v2l369 360l43 -45l-301 -288h864v-60h-862l291 -293l-43 -41z" />
<glyph unicode="4" d="M94 1010h582l178 510l176 -510h580l-469 -310l182 -510l-469 316l-469 -316l180 510zM268 958l328 -217l37 -20l-12 -39l-129 -354l327 219l35 22l31 -22l327 -219l-122 354l-15 39l33 20l330 217h-408h-39l-14 37l-123 357l-127 -357l-12 -37h-39h-408z" />
<glyph unicode="5" d="M328 205v1296h534l510 -461v-835h-1044zM383 258h936v741h-494v449h-442v-1190zM522 494v53h666v-53h-666zM522 682v55h666v-55h-666zM881 1055h395l-395 358v-358z" />
<glyph unicode="6" d="M166 850q0 136 54.5 260t146.5 214t219 143t266 53t265.5 -53t218 -143t146 -214t54.5 -260t-54.5 -259.5t-146 -212.5t-218 -141.5t-265.5 -52.5t-266 52.5t-219 141.5t-146.5 212.5t-54.5 259.5zM221 850q0 -111 40 -212t112 -179q127 53 301 102q6 0 7 5.5t1 29.5 q0 47 -12 74q-29 65 -31 100q-30 50 -45 107q-13 59 0 92q4 0 4 4q0 76 -12 125q-7 29 5 76.5t48 87.5q63 82 190 92h54q120 -9 194 -92q33 -40 44 -87t5 -77q-16 -100 -8 -125v-4q13 -32 4 -92q-12 -51 -45 -107q-5 -44 -30 -100q-25 -48 -25 -74q0 -11 0.5 -17.5t2.5 -10 t3.5 -4.5t5.5 -3q115 -30 301 -98q68 77 106 177.5t38 209.5q0 166 -84.5 307t-229 223t-313.5 82q-171 0 -316.5 -82t-230 -223t-84.5 -307zM412 414q88 -81 201.5 -126.5t238.5 -45.5q126 0 240.5 45.5t199.5 126.5q-129 51 -274 94q-24 7 -36 24t-13.5 29.5t-1.5 34.5 q0 32 28 100q2 6 13.5 40t13.5 50q0 15 8 19q23 23 35 86q7 35 0 57q0 4 -2 8q-5 22 -1.5 68.5t11.5 83.5q4 19 -5.5 54.5t-33.5 64.5q-51 63 -151 69h-54q-102 -6 -147 -69q-24 -28 -33.5 -63t-7.5 -56q20 -114 8 -152q0 -8 -4 -8q0 -38 4 -57q14 -63 37 -86q8 -8 8 -19 q8 -53 27 -90q18 -42 18 -100q0 -24 -1.5 -37t-13 -30t-34.5 -23q-163 -50 -278 -92z" />
<glyph unicode="7" d="M156 852q0 189 93.5 350t254 254.5t348.5 93.5q142 0 271 -55.5t222.5 -149t149 -222.5t55.5 -271q0 -188 -93.5 -348.5t-254.5 -254t-350 -93.5q-188 0 -348.5 93.5t-254 254t-93.5 348.5zM211 852q0 -174 86 -321.5t233.5 -233.5t321.5 -86q175 0 323 86t234 233.5 t86 321.5q0 175 -86 323t-234 234t-323 86q-174 0 -321.5 -86t-233.5 -234t-86 -323zM795 1176q0 28 18.5 46.5t46.5 18.5q26 0 45 -18.5t19 -46.5q0 -26 -19 -46t-45 -20q-27 0 -46 19.5t-19 46.5zM821 461v561h74v-561h-74z" />
<glyph unicode="8" d="M178 979q0 147 73 272t198 198t272 73q148 0 273 -73t197.5 -198t72.5 -272q0 -195 -125 -346l389 -389l-72 -72l-389 389q-151 -125 -346 -125q-147 0 -272 72.5t-198 197.5t-73 273zM236 979q0 -132 65 -243.5t176.5 -176.5t243.5 -65t243.5 65t176.5 176.5t65 243.5 t-65 243.5t-176.5 176.5t-243.5 65t-243.5 -65t-176.5 -176.5t-65 -243.5z" />
<glyph unicode="9" d="M184 717v270h150q23 81 57 139l-102 103l186 186l100 -100q69 40 142 61v140h270v-140q72 -20 143 -61l101 100l186 -186l-102 -103q40 -68 57 -139h146v-270h-150q-16 -61 -59 -131l108 -109l-186 -186l-113 110q-67 -39 -131 -53v-158h-270v158q-65 15 -129 53 l-113 -110l-186 186l108 109q-39 64 -57 131h-156zM240 772h100h41l10 -37q20 -71 51 -121l23 -36l-31 -27l-69 -74l110 -110l76 71l27 31l36 -23q53 -29 119 -47l39 -8v-43v-104h162v104v43l39 8q66 18 119 47l36 23l27 -31l76 -71l112 110l-71 74l-31 27l23 36 q31 50 51 121l10 37h43h98v162h-94h-43l-10 39q-15 66 -49 127l-21 33l29 32l65 64l-112 110l-62 -61l-32 -31l-35 25q-68 38 -129 51l-39 10v43v86h-162v-86v-43l-39 -10q-61 -13 -129 -51l-35 -25l-30 31l-64 61l-110 -110l63 -64l29 -32l-21 -33q-34 -61 -49 -127 l-10 -39h-43h-94v-162zM612 852q0 101 71 170.5t171 69.5t170 -69.5t70 -170.5q0 -98 -70 -168t-170 -70t-171 70t-71 168zM666 852q0 -77 55 -131.5t133 -54.5q76 0 131 55t55 131q0 78 -54.5 132t-131.5 54q-78 0 -133 -54t-55 -132z" />
<glyph unicode=";" d="M309 188v1313h1090v-1313l-547 383zM365 295l452 321l35 25l37 -25l454 -321v1153h-978v-1153zM565 899v57h576v-57h-576zM565 1116v60h576v-60h-576z" />
<glyph unicode="@" d="M350 1090q0 138 67 255.5t182.5 185.5t252.5 68q135 0 250.5 -68t183.5 -185.5t68 -255.5q0 -134 -72 -256l-430 -766l-432 766q-70 118 -70 256zM397 1090q0 -115 64 -230l391 -688l391 688q62 117 62 230q0 124 -61.5 230t-166 168t-225.5 62q-122 0 -227 -62 t-166.5 -168t-61.5 -230zM674 1090q0 72 52 124t126 52q72 0 124 -52t52 -124q0 -75 -52 -127t-124 -52q-75 0 -126.5 52t-51.5 127zM725 1090q0 -54 36.5 -90.5t90.5 -36.5t88.5 36.5t34.5 90.5q0 53 -35 91t-88 38t-90 -38t-37 -91z" />
<glyph unicode="A" d="M207 565q3 85 20 156q48 213 187 393q149 194 383 299q114 51 239 72q65 12 128 12q23 0 46 -2q65 -3 136 -25q96 -33 131 -137q12 -53 18 -108q2 -16 2 -48t-2 -81q-8 -77 -35 -174q-53 -186 -170 -336q-114 -147 -274 -242q-99 -62 -199 -90q-85 -29 -178 -41 q-74 -8 -109 -8q-91 0 -155 20q-39 13 -70 31q-44 31 -67 88q-21 53 -27 107q-5 46 -5 83q0 16 1 31zM326 397q18 -60 73 -71q4 4 4 6q83 77 148 147l8 8q12 15 12 31q0 14 -10 29q-14 22 -37 22q-9 0 -20 -4q-11 -2 -25 -16q-24 -24 -147 -146zM532 827q-9 -33 15 -57 l63 -63q2 -2 6.5 -5.5t6.5 -5.5l-2 -4q-3 -3 -9.5 -9t-9.5 -9q-11 -11 -20 -23q-17 -22 -10.5 -47.5t32.5 -32.5q26 -10 53 13l37 37q6 -4 13 -11q10 -10 30.5 -31.5t32.5 -33.5q14 -10 23 -15q22 -6 43.5 5t27.5 34q9 27 -8 47q-1 2 -5 6.5t-5 6.5q-10 9 -62 61q-6 3 -6 10 l72 72l8 -8q12 -10 33 -32t33 -32q28 -26 54.5 -17t39.5 38q9 25 -6 47q-2 2 -6 6.5t-5 5.5q-12 12 -32.5 33t-30.5 31l-8 8l74 74l8 -8q13 -11 34.5 -32.5t30.5 -29.5q7 -9 25 -18q20 -6 41.5 5.5t30.5 33.5q6 32 -15 53l-67 67q-1 2 -5 6t-6 7q12 9 21 18q3 3 9.5 11 t10.5 12q13 14 11.5 33.5t-15.5 33.5q-13 13 -33.5 14t-33.5 -10q-6 -5 -33 -32q-8 -8 -10 -9q-7 7 -11 9q-13 15 -63 65q-18 13 -23 16q-23 5 -44 -6.5t-27 -34.5q-6 -12 0 -28q2 -13 16 -27q7 -8 64 -65l6 -6q-13 -13 -37 -38t-35 -36q-1 1 -4 3t-4 3q-12 12 -33.5 33 t-32.5 32q-31 26 -57.5 16t-36.5 -38q-12 -29 14 -55q9 -10 32 -32t34 -36l8 -8l-74 -74q-5 3 -14 17q-20 18 -59 57q-18 21 -45 18q-33 -5 -50 -39zM1143 1212q-9 -15 -9 -30q0 -18 15 -35q13 -13 31.5 -14t33.5 10q2 2 6.5 6t6.5 6q28 26 77.5 74.5t65.5 64.5q1 2 4 5.5 t4 5.5q-17 57 -73 71l-5 -4q-100 -100 -147 -149q-2 -2 -5 -5.5t-5 -5.5z" />
<glyph unicode="B" d="M213 1417q-1 23 12 32.5t33 0.5q6 0 14 -4q9 -5 308 -173.5t592 -333.5t294 -165q29 -21 27 -41q0 -23 -33 -37l-309 -108l-727 598q452 -496 565 -619q23 -23 23 -59v-301q0 -29 -31 -29l-184 287q-251 -88 -353 -125q-28 -10 -50 4t-27 45q-7 61 -78 532t-76 496z" />
<glyph unicode="C" d="M205 285v10v993q0 48 37 70q19 16 49 16h581v-166h-501v-837h833v501h170q-2 -269 -2 -413.5t2 -165.5q0 -37 -25.5 -62.5t-60.5 -25.5q-191 1 -563.5 1t-431.5 -1q-49 0 -78 43q-10 15 -10 37zM457 457l41 209l721 720l167 -167l-718 -715zM1278 1446q53 53 78 80 q20 19 40 19q21 0 42 -21q2 -3 35.5 -36.5t44.5 -47.5q13 -10 16 -23q16 -28 -6 -53l-82 -84z" />
<glyph unicode="D" d="M208.5 815.5q-2.5 42.5 0.5 52.5q3 165 84 303q33 61 65 95q8 8 25 26.5t25 26.5q62 61 141 102q59 34 176 66q27 8 61 8q29 4 78 4q127 -6 234 -51q6 0 12.5 -4t7.5 -4q-21 4 -42 4q-51 0 -105 -23q-68 -26 -101 -110q-26 -58 -26 -121q0 -23 4 -47q6 -95 45 -174 q7 -16 47 -99q38 -78 57 -129q19 -43 19 -63q0 -6 1 -18t1 -17v-7q0 -54 -29 -122q-40 -84 -92 -129q-78 -65 -160 -76q-50 -8 -67 -8q-110 6 -209 64q-62 38 -121 96q-50 59 -80 139q-18 40 -49 162v2q0 9 -2.5 51.5zM598 262q49 -12 87 -12q15 0 28 2q144 7 227 76 q52 38 92 96q45 84 51 131q9 59 9 94q0 18 -2 29q-12 77 -29 121q-23 65 -76 166q-39 70 -55 157q-7 38 -7 78q0 13 1 27q7 98 77 149q27 23 78 31q20 3 37 3t31 -3q58 -7 80 -29q5 -4 25 -19t28 -21.5t21.5 -19t23.5 -24.5q53 -55 94 -133q42 -74 66 -176q6 -23 10 -63 q4 -59 4 -78v-6q-7 -124 -47 -224q-30 -76 -68 -129q-63 -85 -118 -129q-44 -38 -142 -92q-81 -35 -163 -47q-57 -11 -100 -11q-14 0 -27 1q-167 4 -236 55z" />
<glyph unicode="E" d="M207 855q1 136 57 260q58 126 148 211q90 84 204 132q103 43 205 43h21v-334v-327h657q2 -21 2 -43q0 -77 -29 -159q-38 -106 -112 -197t-189 -156t-245 -76q-32 -3 -63 -3q-119 0 -225 40q-136 50 -228 141t-147 213q-56 124 -56 255zM948 946v641h14q84 0 182 -45 q108 -49 203.5 -132.5t164.5 -207.5t79 -256h-643z" />
<glyph unicode="F" d="M197 1389q0 61 44.5 106t106.5 45t107.5 -42.5t46.5 -108.5q0 -59 -45 -103.5t-107 -44.5q-66 0 -109.5 44.5t-43.5 103.5zM205 283q-8 22 -8.5 41.5t8.5 37.5q12 18 35 37q71 54 112 90q55 46 101 86q1 2 8 13.5t12 19.5q6 14 6 54q0 56 -12 83q-28 109 -31 146v27 q96 -93 268 -266t240 -240q-15 0 -61 4q-56 8 -82 18q-58 17 -86 19q-9 1 -18 1q-29 0 -56 -8q-31 -10 -41 -24q-56 -62 -104 -125q-53 -60 -84 -100q-3 -5 -14 -12t-13 -9q-18 -8 -37.5 -8t-42.5 8q-62 33 -100 107zM444 1032q5 14 15 53q30 106 106 185q58 70 131 112 q114 77 228 99q46 9 96 9q30 0 61 -3q76 -12 142 -43q163 -87 243 -246q44 -87 47 -170q2 -18 2 -40q0 -31 -4 -70q-14 -98 -63 -187q-36 -76 -115 -162q-104 -101 -241 -141q-6 -2 -16.5 -4.5t-12.5 -3.5q-105 102 -309.5 306t-309.5 306z" />
<glyph unicode="G" d="M201 733q-16 87 -16 167q0 84 18 159q59 254 280 342q135 57 266 57q66 0 130 -14q351 -70 448 -424q14 -52 14 -113q0 -23 -2 -47q-8 -1 -33.5 -4t-38 -5.5t-33 -7t-36.5 -11.5t-31 -17l33 -172l293 -18q47 -5 61 -19q10 -15 5.5 -32.5t-23.5 -18.5v-248q2 -1 6 -2.5 t6.5 -2.5t6 -2.5t5.5 -4.5t3 -6q6 -25 -7 -39t-40 -8q-142 37 -207 67q-36 18 -59.5 40t-37.5 54q-25 63 -36 101l-29 74h-57q-5 -23 -5 -33q-3 -95 -67 -156q-64 -67 -183 -67q-23 0 -47 2q-72 5 -141 59q-69 48 -137 106q-37 26 -66 31q-46 14 -57 15l-137 4q-8 20 -10 32 q-28 103 -39 162zM674 737q0 -36 27 -63q26 -25 60 -25h3q41 4 64.5 29t23.5 63t-24.5 62t-63.5 26q-42 0 -66 -26t-24 -66zM1094 653l36 -8l-16 84h-6zM1221 573q37 -116 65 -161q10 -15 31 -29q53 -37 143 -57h6v233q-85 6 -245 14z" />
<glyph unicode="H" d="M225 735q7 79 27.5 153.5t45.5 128.5t56.5 103.5t55 78t47.5 52.5q30 30 70.5 60t104.5 68t153 65.5t186 36.5q33 3 66 3q181 0 368 -79q79 -187 79 -368q0 -33 -3 -66q-27 -296 -228 -514q-32 -31 -73 -61.5t-106 -68t-153.5 -65.5t-185.5 -37q-34 -3 -69 -3 q-183 0 -363 81q-81 180 -81 363q0 35 3 69zM303 666q0 -27 3.5 -60.5t7.5 -53.5l3 -20q46 -61 101 -114q53 -55 114 -101q73 -14 134 -14q43 0 86 3.5t68 7t26 3.5q-203 48 -342 187v2q-139 136 -187 340q0 -1 -3.5 -26t-7 -68t-3.5 -86zM458.5 731q-1.5 -22 12.5 -33 l80 -82q-14 -14 -14.5 -33.5t12.5 -33.5q14 -13 33.5 -12.5t33.5 14.5l82 -80q11 -15 33 -13t35 23q20 23 -4 51l-80 82l90 97q57 -57 84 -82q18 -13 36 -12.5t28 10.5q14 14 15 30.5t-15 32.5l-84 80q35 33 51 51l49 49q53 -57 80 -84q14 -16 29.5 -16t33.5 16q10 10 11 29 t-13 35q-10 13 -30.5 34t-36.5 36l-15 14l99 92q53 -55 80 -78q11 -13 27 -14.5t26 6.5q19 13 21 35t-11 35l-80 82q12 14 13 33t-11 34q-14 12 -33.5 11t-33.5 -13l-82 80q-13 13 -35 11t-33 -21q-9 -10 -8 -25.5t14 -27.5l78 -80l-92 -99q-55 57 -84 82q-16 14 -35 13.5 t-29 -11.5q-14 -14 -14.5 -31t14.5 -32l84 -80q-35 -33 -49 -49l-51 -51q-53 59 -80 84q-15 15 -32 14.5t-31 -14.5q-10 -8 -10.5 -27t12.5 -37l82 -84l-97 -92q-53 55 -82 82q-28 24 -53 2q-19 -11 -20.5 -33zM864 1389q203 -49 338 -187q137 -132 187 -338q2 5 5 25.5 t7 64t4 88.5q0 26 -4 59t-8 53l-4 20q-55 74 -99 116q-42 44 -116 99q-73 16 -132 16q-45 0 -88.5 -3.5t-65 -7t-24.5 -5.5z" />
<glyph unicode="I" d="M156 205v61q3 71 26 133q18 47 37 77.5t51 51.5q48 38 92 54q54 26 209 80q17 5 48 17.5t36 14.5q31 9 41 47q5 18 9 41q-49 67 -87 162q-49 136 -49 266q0 79 17 131q36 114 145 144q57 17 115 17q55 0 110 -15q124 -33 160 -164q11 -54 11 -105q0 -12 -1 -24 q-12 -207 -106 -367q-4 -4 -10 -16q-2 -2 -5.5 -6t-5.5 -6q0 -31 11 -64q7 -31 34 -41q10 -4 37.5 -15.5t42.5 -16.5q132 -50 195 -70q12 -5 80 -43q85 -45 123 -148q28 -76 28 -171v-19q0 -1 -1 -3t-1 -3h-1392z" />
<glyph unicode="J" d="M205 854q1 176 88 325t236 235.5t325 86.5q175 0 324 -87t236 -236q85 -148 85 -322q0 -179 -86.5 -328t-235.5 -236q-147 -85 -321 -85h-4h-4q-173 0 -320 85q-149 87 -236 236.5t-87 325.5zM344 853q0 -207 148 -357q149 -150 358 -152q138 0 256 68.5t187 185.5 t69 254v4q0 135 -67 250q-68 118 -185.5 187t-255.5 69h-3q-207 0 -355 -148q-152 -150 -152 -361zM401 854q0 122 61 226t165 164.5t225 60.5q122 0 226.5 -61t165.5 -165q59 -102 59 -221q0 -190 -132.5 -322.5t-318.5 -132.5q-121 0 -225 60.5t-165 164.5t-61 226z M522 717l168 108v58q-111 71 -168 106q-26 -68 -26 -136t26 -136zM569 641q93 -119 242 -143q-2 31 -4 64t-4.5 72.5t-3.5 61.5q-8 5 -17.5 10.5t-21 11.5t-17.5 9q-20 -10 -81 -39t-93 -47zM569 1067q31 -17 90.5 -46t83.5 -42q9 5 28 16.5t28 16.5q1 22 3.5 61.5t4.5 72.5 t4 64q-151 -24 -242 -143zM774 854q0 -32 24 -56t56 -24q31 0 54.5 24.5t23.5 55.5t-24 54.5t-56 23.5q-31 0 -54.5 -23.5t-23.5 -54.5zM897 498q144 23 238 141q-140 69 -174 88q-45 -25 -54 -31q-2 -52 -10 -198zM897 1208q9 -149 10 -198q9 -4 27 -14.5t27 -14.5 q27 14 85.5 43t88.5 45q-92 118 -238 139zM1016 821q29 -19 85 -54.5t81 -51.5q28 69 28 138t-28 138q-78 -48 -166 -106v-64z" />
<glyph unicode="K" d="M29 590q-11 28 -11 60q0 161 281 421q111 108 248 203q49 36 113 75t104 60l39 21q-114 -70 -268 -193q-88 -78 -152 -139q-95 -95 -162 -205q-34 -67 -37 -121v-7q0 -82 72 -126q24 -15 51.5 -20.5t42.5 -4.5l15 2q-2 5 -4 13.5t-6 37t1 58.5q12 100 63 194.5t154 198.5 q90 90 199 152q76 45 159.5 65.5t133.5 20.5q66 0 113 -29q38 -16 73 -63l164 -215q23 -30 27 -58q62 36 125.5 79.5t96.5 69.5l32 25q-1 -2 -3.5 -6.5t-17.5 -21.5t-37 -37.5t-66.5 -56t-101.5 -76.5q-113 -92 -329 -205q-191 -101 -393 -180q-52 -21 -150 -52 q-23 -6 -53.5 -13t-89 -17t-110.5 -16q-45 -5 -92 -5h-16q-56 1 -92 13q-45 15 -72 36t-44 62zM444 672q5 -15 12.5 -27.5t11.5 -18.5l5 -5l62 8q-13 18 -23 45q-13 30 -13 61q0 23 7 47q9 29 24.5 64.5t63 103.5t111.5 123q160 135 290 135q23 0 45 -4q61 -7 84 -59 q10 -24 10 -54q0 -23 -6 -51q-11 -59 -49 -120q-40 -70 -104 -134q-7 -5 -45 -43l96 37q10 10 26 28t51.5 71.5t53.5 105.5q18 54 23.5 95t1.5 55l-4 14q77 -98 108 -139q27 -38 29 -68v-16q13 3 45 22q-6 43 -27 78q-17 22 -69.5 88.5t-79.5 102.5q-19 23 -37 34 q-42 25 -110 25q-19 0 -40 -2q-58 -6 -149.5 -50.5t-171.5 -111.5q-89 -78 -141.5 -147.5t-81.5 -155.5q-16 -53 -16 -92q0 -26 7 -45zM492 457l94 22l71 -69q3 -3 8 -7t24 -15t39.5 -15.5t54.5 -7.5q7 -1 15 -1q27 0 54 9q88 15 188 80q62 39 123 94q87 78 152 196 q8 13 18.5 38.5t16.5 44.5l6 20q59 41 90 59q1 -5 1 -10q0 -31 -20 -95q-23 -74 -75 -163q-51 -78 -152 -172q-51 -44 -162 -111q-41 -24 -108 -45t-127 -24q-11 -1 -21 -1q-45 0 -87 14q-51 17 -79 38q-17 12 -69.5 64.5t-54.5 56.5zM639 498q321 100 666 315 q-4 -15 -8.5 -25.5t-11 -21t-9.5 -16.5q-10 -28 -59 -91.5t-113 -115.5q-63 -52 -131 -85t-107 -42q-40 -11 -73 -11q-60 0 -99 35q-37 31 -55 58z" />
<glyph unicode="L" d="M32 492.5q0 51.5 3 114.5t7 117t9.5 114.5t9.5 98t8.5 75.5t4.5 41q14 158 132 266t279 108h703q105 0 195.5 -48.5t147.5 -133.5t66 -188q3 -23 8 -62.5t15 -147.5q11 -109 16 -199q4 -70 4 -142v-44q-2 -96 -16 -143q-8 -20 -33.5 -49.5t-44.5 -38.5q-25 -12 -71 -12 q-1 1 -3 1q-48 0 -75 11q-53 23 -143 115.5t-154 173.5l-64 82h-399q-10 -13 -27 -35t-64.5 -80t-90.5 -105t-93 -92t-83 -59q-27 -11 -77 -11q-2 0 -3 -1q-47 0 -72 12q-19 9 -45.5 38.5t-32.5 49.5q-8 29 -12.5 75.5t-4.5 98zM217 1016q0 -97 68.5 -166.5t167.5 -69.5 q95 0 163 69.5t68 166.5t-68 166t-163 69q-99 0 -167.5 -69t-68.5 -166zM291 987v57h129v136h61v-136h129v-57h-129v-135h-61v135h-129zM1008 1016q0 -32 22.5 -55t54.5 -23q31 0 53.5 23t22.5 55t-22.5 55t-53.5 23q-32 0 -54.5 -23t-22.5 -55zM1139 887q0 -33 21 -55.5 t54 -22.5q32 0 55 23t23 55q0 31 -23 53.5t-55 22.5q-33 0 -54 -22t-21 -54zM1139 1147q0 -32 21 -55t54 -23q32 0 55 23.5t23 54.5t-23 54.5t-55 23.5q-33 0 -54 -23t-21 -55zM1268 1016q0 -32 23.5 -55t54.5 -23t54 23t23 55t-23 55t-54 23t-54.5 -23t-23.5 -55z" />
<glyph unicode="M" d="M217 236v1105q0 41 25.5 67t64.5 26h1108q41 0 64.5 -23t25.5 -63v-428l-1 -5q-1 -5 -1 -10q-6 6 -17 16t-16 15q-4 6 -4 27v145q0 6 -1 17t-1 14h-1206v-27v-868v-21q9 -31 37 -37q10 -2 24 -2q561 0 842 2q54 0 74 -39q-4 0 -12 -1t-11 -1l-452 1q-451 0 -451 -1 q-41 0 -66.5 26t-25.5 65zM301 397v41h170v209h-170v39h170v209h-170v41h170v160h41v-160h207v160h43v-156q-5 -2 -29 -20q-3 -4 -9 -12.5t-9 -12.5h-203v-209h203q4 -3 10 -10t10 -10q9 -12 27 -23v-205h207v209h-4q12 9 22 19q13 10 23 26v-6h198q18 -18 23 -22 q20 -20 29 -23v-199q-27 -18 -31 -22t-6.5 -7.5t-5.5 -8l-5 -7.5h-202v-166h-41v166h-207v-166h-43v166h-207v-166h-41v166h-170zM512 438h207v209h-207v-209zM719 793q0 59 41.5 101t101.5 42q58 0 100 -42t44 -101q0 -60 -42.5 -102t-101.5 -42q-60 0 -101.5 42t-41.5 102 zM1010 438h209v209h-209v-209zM1212 291q0 60 42 101.5t102 41.5q60 -2 101.5 -42.5t41.5 -98.5q0 -61 -41.5 -102t-101.5 -41t-102 40.5t-42 100.5zM1212 788q0 60 42.5 102t103.5 42q58 0 99.5 -41t41.5 -100q1 -61 -41 -103q-41 -42 -99 -41h-3q-60 0 -102 41t-42 100z M1464 475q2 22 2 55.5t-2 77.5q0 33 21 49q3 2 18 17v-264q-15 12 -21.5 18t-12.5 18.5t-5 28.5z" />
<glyph unicode="N" d="M135 432q0 170 2 248q4 99 19 147q3 23 14 45q27 67 96 82q50 4 66 4q0 2 55 1l55 -1q20 -32 74 -129q-4 -4 -8 -4q-81 -30 -111 -114q-13 -51 -16 -99l-14 -180h-232zM375 1133q-14 38 -14 76q0 45 21 89q39 80 124 105q36 12 69 13q45 0 89 -24q74 -40 102 -110 q-90 -36 -138 -116q-39 -65 -38 -136q0 -17 2 -33q-15 -4 -32 -4q-40 -1 -90 25q-70 36 -95 115zM418 262v80q0 74 4 113q0 69 6 137q2 38 21 96q18 41 43.5 64t66.5 30q40 4 66 4q35 2 102 2q18 -35 50.5 -91t55.5 -95l23 -39q86 147 127 225q24 0 70.5 -1t70.5 -1 q37 -5 52 -12q48 -10 75 -65q22 -40 29 -93q8 -53 12 -159v-195h-874zM643 1030q0 82 60 144.5t153 62.5q91 0 151 -63q58 -61 58 -139v-5q0 -87 -60.5 -149t-148.5 -62h-5q-83 0 -144 60q-63 62 -64 151zM942 1286q14 54 80 98q47 31 105 32q23 0 47 -5q86 -17 134 -87 q37 -53 37 -116q0 -20 -4 -41q-17 -87 -83 -135q-56 -41 -114 -40q-11 0 -22 1q1 12 1 24q0 190 -181 269zM1190 829q6 11 17.5 32.5t18.5 34.5t18 30.5t22 31.5h90q51 0 80 -4q69 -14 104 -86q18 -70 21 -94q4 -49 6 -134.5t2 -146.5v-61h-223q-1 53 -5 78q-3 94 -20 168 q-8 60 -53 108q-31 25 -66 39q-2 1 -6 2t-6 2z" />
<glyph unicode="O" d="M205 1057h123v203q0 211 186 317q64 41 150 41q61 0 94 -4q100 -15 180 -93.5t100 -179.5q6 -43 6 -86v-202h127v-156q181 -42 265 -184q57 -96 57 -194q0 -20 -2 -40q-12 -133 -93 -226.5t-202 -123.5q-52 -13 -103 -13q-77 0 -150 30q-122 50 -195 180h-541z M504 1183.5q0 -51.5 1 -89.5l1 -37h364v209q0 28 -8 47q-22 75 -92 111q-36 19 -76 19q-37 0 -76 -16q-109 -39 -112 -165q-2 -27 -2 -78.5zM831 508q2 -109 80 -186.5t187 -77.5q110 0 188 78.5t78 187.5q-1 110 -80 189t-186 79q-116 -3 -192 -84q-75 -79 -75 -181v-5z M874 471q28 28 82 86q29 -27 82 -80q35 38 102.5 108t92.5 97l84 -84q-45 -47 -136 -143t-139 -146q-82 79 -168 162z" />
<glyph unicode="P" d="M208 723q0 29 32 61q26 31 75 76q34 34 62 34t63 -34q37 -38 109.5 -110.5t109.5 -110.5q4 -3 13 -12t14 -13q7 9 17 24.5t14 20.5q264 390 518 762q1 4 14 21q28 37 62 37q23 0 49 -17q67 -44 100 -69q40 -27 40 -62q0 -24 -19 -51q-71 -103 -178 -262 q-212 -317 -482 -705q-11 -19 -28 -43q-27 -30 -59 -36q-8 -1 -16 -1q-25 0 -50 15q-32 13 -50 37q-150 145 -378 377q-32 32 -32 61z" />
<glyph unicode="Q" d="M551 735l301 301l303 -301l-70 -67l-233 233l-234 -233z" />
<glyph unicode="R" d="M43 887h164q4 46 10 67q21 163 127 297q121 155 305 217q80 26 156 29h92q190 -9 336 -125q8 -4 16 -12q-63 -76 -143 -176q-127 88 -253 88q-115 0 -230 -72q-84 -53 -131 -137.5t-52 -175.5h170q-45 -57 -139 -178t-145 -185q-131 171 -283 363zM455 350q23 29 70 87.5 t71 86.5q133 -86 260 -86q128 0 250 88q142 109 160 295h-172q136 177 286 363q100 -124 285 -361h-164q-49 -421 -434 -575q-113 -37 -220 -37q-207 0 -392 139z" />
<glyph unicode="S" d="M207 854q0 133 51 253.5t138 206.5t206.5 136.5t251.5 50.5q179 -1 327.5 -88t233.5 -235t86 -324q-1 -133 -51.5 -252.5t-136.5 -206t-206 -137.5t-253 -51q-177 0 -325.5 85t-235 234t-86.5 328zM528 979q0 -143 100 -243.5t242 -100.5q143 0 243.5 100t100.5 242 q0 136 -98 238t-246 102q-146 0 -244 -100.5t-98 -237.5zM735 969q0 82 27 131q10 24 26 37q34 32 86 32q48 0 78 -26q30 -24 37 -66l-71 -10q0 11 -5 18q-9 25 -39 25q-36 0 -53 -39q-12 -30 -12 -76q2 2 7.5 8.5t8.5 8.5q25 20 62 20q41 0 71 -26q35 -35 35 -91 q0 -54 -32 -86q-31 -41 -93 -41q-43 0 -71 21q-62 45 -62 160zM815 909q0 -39 27 -55q8 -4 26 -4q29 0 41 18q13 13 13 41q0 22 -9 37q-15 25 -43 25q-26 0 -40.5 -18t-14.5 -44z" />
<glyph unicode="T" d="M111 1120q-7 23 16 39q68 48 98 62q21 11 123 61q15 5 51 23q8 4 15 4q34 0 45 -27q7 -19 20.5 -53.5t18.5 -48.5q39 -128 53 -195q7 -23 -16 -39q-23 -11 -39 2q-31 20 -66 51q-4 2 -9.5 6t-8.5 5q-24 -56 -30 -122q-2 -19 -1 -38q0 -48 10 -99q14 -70 55.5 -139.5 t106.5 -122.5q133 -107 292 -108q5 0 11 1q166 4 295 114q141 118 165 294q5 34 5 66q0 137 -82 256q-102 159 -299 201q-46 10 -92 10q-135 0 -264 -84q-11 35 -33 101l-25 75q98 63 218 83q49 8 99 8q75 0 155 -18q134 -30 243 -114q127 -96 195 -234q67 -136 67 -286 q0 -153 -69 -291q-51 -104 -134 -183t-182.5 -122.5t-213.5 -55.5q-30 -3 -59 -3q-83 0 -165 24q-147 44 -238 123q-109 89 -172 207q-62 118 -71 258q-1 17 -1 33q0 123 40 235q-24 4 -31 4q-11 2 -32 5.5t-32 5.5q-24 4 -32 26zM766 870q26 127 61 258q6 24 15 54 q6 28 37 35q30 6 51 -15q10 -13 10 -28q1 -5 1 -11t-0.5 -12.5t-0.5 -9.5q-5 -180 -6 -217q0 -9 -2 -13q-1 -7 -1 -13q0 -29 11 -56q17 -32 45 -91.5t41 -84.5q14 -25 6 -45q-8 -26 -34 -34t-48 11q-10 10 -24 31q-29 32 -84.5 97.5t-65.5 76.5q-15 19 -15 44q0 11 3 23z " />
<glyph unicode="U" d="M205.5 579.5q-0.5 13.5 0.5 32t1 25.5q20 -77 119 -129q74 -41 180 -55q65 -8 107 -8q15 0 28 1q128 9 231 58q68 40 99 88q5 8 12.5 24t9.5 21v-47v-7q0 -67 -55 -114q-38 -40 -123 -74q-86 -30 -162 -33q-28 -2 -56 -2q-97 0 -183 25q-72 21 -138 68q-42 28 -59 71 q-8 13 -8 29q-3 13 -3.5 26.5zM207 422v65q0 -2 2 -2q10 -54 67 -98q59 -46 150 -70q81 -22 168 -22q27 0 55 2q102 3 195 47q64 25 110 74q28 28 33 59q4 2 4 8h2q0 -55 -2 -82q-8 -46 -49 -81q-35 -37 -98 -68q-90 -37 -191 -43q-28 -2 -56 -2q-78 0 -159 18 q-79 17 -137 56q-50 32 -76 73q-18 36 -18 66zM209 696q-4 16 -4 32q0 37 20 71q26 44 101 86q80 43 180 53q16 2 47 4t47 4q106 0 213 -37q82 -28 129 -75q35 -35 45 -72q5 -18 5 -36q0 -33 -17 -67q-34 -45 -78 -71q-63 -43 -166 -64q-65 -14 -138 -14h-26 q-136 11 -215 49q-59 25 -96 62q-36 31 -47 75zM709 1128v64q19 -64 98 -117q68 -41 168 -61q64 -12 131 -13q40 0 82 5q112 14 188 55q53 26 84 65q27 30 35 68q0 -4 2 -8l2 -4q0 -4 -1 -12t-1 -15t2 -12q0 -67 -53 -117q-51 -51 -131 -78q-97 -34 -197 -34q-15 0 -31 1 q-74 0 -141 17q-1 1 -7 2.5t-9 3.5q-75 43 -117 53q-18 5 -33 17q-50 46 -63 79q-8 40 -8 41zM715 1249q-5 17 -5 35q0 32 17 66q39 52 78 75q55 37 164 64q63 12 124 12q23 0 46 -2q147 -11 235 -57q51 -23 88 -70q35 -41 35 -90q0 -46 -33 -84q-36 -47 -90 -72 q-73 -41 -164 -51q-38 -6 -106 -10q-127 4 -215 35q-76 26 -129 76q-35 41 -45 73zM1026 854q6 0 16 -2t15 -2q20 -1 39 -1q142 0 250 46q69 30 102 63q37 40 47 84q0 -8 1 -23.5t1 -28.5t-2 -25q-3 -47 -49 -93q-45 -42 -127 -73q-88 -29 -193 -35h-61q-5 40 -39 90z M1065 535v14h14q12 -1 28 -1q32 0 83 5q127 17 213 70q56 35 74 69q4 8 10 23l8 20q0 -8 1 -22t1 -26.5t-2 -24.5q-3 -35 -33 -74q-46 -52 -110 -80q-82 -32 -154 -43q-14 -1 -43.5 -2t-44.5 -2h-41v16q0 7 -2 26.5t-2 31.5zM1065 684v14h20h20q91 0 183 25q71 20 137 68 q46 37 62 77q5 11 8 21q0 -9 1 -28.5t1 -31.5t-3 -28t-9 -29q-20 -41 -60 -67q-56 -46 -151 -70q-91 -23 -177 -23h-20q-4 0 -8 2v13q0 9 -2 28.5t-2 28.5z" />
<glyph unicode="V" d="M190 854h373l117 -129h344l119 131h368l-63 -639h-1200zM229 1176h1252l-25 -234h-137l10 105h-952l10 -105l-137 -2zM299 1341h1108l-12 -94h-1084zM381 1489h952l-12 -80h-928z" />
<glyph unicode="W" d="M551 969l67 67l234 -233l233 233l68 -67l-301 -301z" />
<glyph unicode="X" d="M205 856q0 176 87.5 325t236.5 235q147 85 319 85h4q133 0 253 -51.5t206.5 -138.5t137.5 -207q50 -118 50 -247v-5q0 -176 -87 -325q-86 -149 -236 -235q-148 -85 -322 -85h-4q-176 1 -324.5 88t-234.5 236t-86 325zM430 682h70l30 84h144l31 -84h67l-141 377h-58z M549 823q35 101 51 150h2l53 -150h-106zM797 817h137v51h-137v-51zM975 682h278v53h-198l192 281v43h-270v-53h188l-190 -283v-41z" />
<glyph unicode="Y" d="M205 530v13v628v17q3 16 18 16q14 -4 23 -8q34 -13 257 -106.5t281 -116.5q36 -15 41 -47v-17v-700q2 -20 -7.5 -26t-29.5 5q-7 4 -28.5 14t-32.5 17q-278 149 -481 256q-26 15 -33 33q-4 6 -8 22zM254 629q2 -46 33 -92q20 -30 53 -39q20 -8 37.5 -1.5t23.5 25.5 q9 27 9 33v8q0 45 -31 90q-26 29 -51 37q-23 8 -40.5 0.5t-25.5 -28.5q-3 -7 -8 -33zM254 1276q-16 13 2 24q9 12 20 15q510 181 555 196q22 8 46 0q233 -79 548 -194q5 0 7 -2q22 -6 22 -27q0 -15 -20 -22q-11 -5 -114 -48t-237 -98.5t-200 -83.5q-9 -4 -31 -8q-15 3 -27 6 q-91 39 -275.5 115t-275.5 115q-3 2 -10 6t-10 6zM420 737q8 -40 22 -61q23 -44 64 -58q24 -9 42.5 0.5t26.5 32.5q5 12 9 33q-3 48 -35 92q-23 33 -55 41q-22 6 -40 -2t-26 -27q-14 -26 -8 -51zM596 864q2 -21 18 -61q31 -47 74 -60q23 -5 42 3.5t28 29.5q2 6 5 19t5 20 q-6 56 -43 96q-22 29 -57 37q-21 5 -40 -3t-26 -27q-15 -24 -6 -54zM736.5 1290q0.5 -15 13.5 -24q5 -3 14.5 -8.5t11.5 -6.5q37 -12 72 -12q8 1 22 2t21 2q37 7 59 23q14 9 14.5 25.5t-14.5 27.5q-10 7 -28 12q-36 11 -74 11q-30 0 -62 -7q-25 -7 -38 -18 q-12 -12 -11.5 -27zM879 199v12v696q0 47 43 66q86 37 266 111t274 114q15 5 19 6q17 3 20 -18v-8v-639q0 -39 -28 -56q-9 -6 -29 -14q-100 -53 -284 -152t-236 -127q-5 -4 -23 -8q-8 -2 -14.5 3t-7.5 14zM1016 737q5 -25 23 -38.5t44 -12.5q17 4 25 12q68 40 74 123v13 q-2 27 -19 45t-45 14q-16 0 -28 -8q-44 -26 -62 -72q-14 -26 -14 -56q0 -10 2 -20zM1227 608q0 -12 2 -18q8 -39 37 -47q27 -9 51 8q69 48 69 133q-6 22 -12 33q-13 24 -45 24q-29 -3 -49 -18q-50 -50 -53 -115z" />
<glyph unicode="Z" d="M344 952q-3 24 -3 49q0 41 9 82q23 160 152 283q101 98 237 125q54 14 116 14h22q164 -9 282 -102q143 -104 191 -283q14 -65 14 -98v-11q0 -66 -21 -157q-30 -103 -112 -238q-54 -85 -182 -243q-4 -5 -47.5 -54.5t-65.5 -76.5q-19 -27 -45 -37q-27 -14 -56.5 -8 t-50.5 30q-19 17 -67 78q-109 126 -170 213q-100 134 -154 256q-40 88 -49 178zM635 1010q0 -89 64.5 -153t152.5 -64q89 0 154 65t65 156q0 88 -64 153q-63 64 -150 64h-2.5h-3.5q-89 -1 -153 -65q-63 -64 -63 -151v-5z" />
<glyph unicode="[" d="M205 205v1296h1296v-1296h-1296zM258 258h1190v891h-1190v-891zM258 1204h1190v242h-1190v-242zM559 829v50h10q24 1 35 1.5t26.5 4.5t22.5 11t14 20t11 32v8h47v-430h-57v303h-109zM618 1280v84h80v-84h-80zM850 664h57l2 -11q0 -37 25 -60.5t63 -23.5q42 0 67.5 30.5 t25.5 70.5q0 42 -27 69t-70 27q-56 0 -80 -43l-2 -4h-53l47 233h221v-57h-178l-22 -100q34 24 71 24q68 0 110 -42t42 -111q0 -62 -45 -104t-111 -42q-62 0 -101.5 36t-39.5 97zM1026 1280v84h86v-84h-86z" />
<glyph unicode="]" d="M268 205v1098h320v198h581l267 -250v-845h-320v-201h-848zM322 254h741v747h-262v250h-479v-997zM641 1303h211l264 -250v-598h266v747h-266v250h-475v-149zM852 1053h190l-190 178v-178zM1169 1251h191l-191 181v-181z" />
<glyph unicode="^" d="M156 852q0 189 93.5 350t254 254.5t348.5 93.5q142 0 271 -55.5t222.5 -149t149 -222.5t55.5 -271q0 -188 -93.5 -348.5t-254.5 -254t-350 -93.5q-188 0 -348.5 93.5t-254 254t-93.5 348.5zM211 852q0 -174 86 -321.5t233.5 -233.5t321.5 -86q175 0 323 86t234 233.5 t86 321.5q0 175 -86 323t-234 234t-323 86q-174 0 -321.5 -86t-233.5 -234t-86 -323zM408 840v45l219 145l28 -45l-182 -125l182 -119l-28 -47zM733 592l215 547l51 -21l-213 -547zM1081 741l185 119l-185 125l31 45l217 -145v-45l-217 -146z" />
<glyph unicode="`" />
<glyph unicode="a" d="M205 852q2 12 2 43q1 7 2 20.5t2 20.5q9 68 29 125q42 119 114 211q74 86 168 143q87 52 183 76q39 8 61 10q8 1 43 6h53h33q4 -1 12.5 -2t12.5 -2q14 0 34 -4q24 -2 58 -10q140 -37 254 -131q142 -124 200 -301q17 -41 23 -88q1 -8 4 -25.5t4 -25.5q4 -50 4 -72 q0 -5 -1 -17.5t-1 -17.5q-1 -6 -2 -19t-2 -20q-3 -12 -6 -37q-1 -9 -16 -73q-41 -131 -123 -232q-106 -127 -254 -188q-74 -27 -115 -35q-12 -3 -47 -8q-32 -4 -47 -4h-58q-19 0 -43 4q-39 3 -67 8q-35 9 -113 37q-102 45 -180 114q-132 120 -188 287q-16 54 -21 90 q-1 7 -3 20.5t-3 20.5q-4 28 -4 37q0 7 -1 20t-1 19zM236 913l112 -110l135 170q-14 223 -14 225q-27 -5 -79.5 -15t-74.5 -14q-40 -71 -53 -127q-20 -60 -26 -129zM397 436q88 -101 217 -155l136 69l-119 189l-209 57q-19 -107 -25 -160zM649 926l80 -244h248l78 246 l-203 145zM649 1335l203 -82l203 82q-49 90 -72 135q-81 16 -141 16q-13 0 -25 -1q-77 -6 -100 -15q-11 -23 -34 -68t-34 -67zM956 350q88 -44 131 -67q65 26 127 73q56 43 97 86l-29 152l-209 -55zM1221 973l137 -170q69 69 106 104q-6 74 -26 137q-21 65 -56 127l-145 27z " />
<glyph unicode="b" d="M231 268v307q7 -7 19 -18.5t18 -17.5q36 -32 74 -37q10 -1 20 -1q54 0 91 42l127 139v-408q0 -33 -17.5 -51t-48.5 -18h-219q-22 0 -37 12q-27 18 -27 51zM246 750q159 182 348 385q16 16 27 14q8 0 24 -12l197 -181l327 363q-96 94 -129 127q-10 10 -10 24q0 11 7 20 t18 9q0 1 8.5 0.5t9.5 -0.5h375q21 0 29 -24v-396q-5 -16 -23 -24q-11 -6 -27 6l-120 119l-422 -461q-9 -10 -15 -12q-17 -8 -36 8q-11 10 -32.5 30.5t-33.5 30.5l-125 121l-256 -281q-4 -2 -9.5 -5t-20.5 -6t-21 7q-20 25 -88 93q-28 22 -2 45zM678 268v449q19 -17 27 -23 q4 -4 26.5 -24.5t36.5 -32.5q33 -34 86 -34h4q56 1 92 40l80 84v-74v-393q-5 -24 -21.5 -39.5t-37.5 -15.5h-228q-29 0 -47 17t-18 46zM1128 268v574q99 102 181 194q31 -27 41 -41q44 -42 98 -42q14 0 29 3v-686q1 -31 -18.5 -49t-47.5 -16h-211h-22q-50 14 -50 63z" />
<glyph unicode="c" d="M205 205v1098h997l211 206q28 25 64 25q35 0 63 -25q26 -26 26 -62t-26 -61l-209 -204v-977h-1126zM262 262h1010v862l-471 -456h-123v125l465 452h-881v-983zM737 725h39l721 702q10 10 10 21q0 10 -10 20q-9 9 -20 9q-9 0 -21 -9l-719 -700v-43z" />
<glyph unicode="d" d="M203 854v8q1 171 87 318q88 151 239 239t325 88q176 0 326.5 -88.5t238.5 -239.5t88 -327q-1 -174 -89.5 -323.5t-239 -237.5t-326.5 -88q-131 0 -251.5 52.5t-208 140t-139 208t-50.5 250.5zM264 858q8 5 33.5 20.5t38.5 24.5q18 140 67 234q-4 12 -11 35t-11 34 q-51 -51 -91 -171q-30 -89 -30 -143q0 -19 4 -34zM276 717q29 -127 123 -242q18 -25 74 -41q9 8 24 23t23 22q-24 74 -24 188v33q-112 95 -150 123q-7 -3 -20.5 -13.5t-20.5 -14.5q-32 -19 -32 -55q0 -11 3 -23zM444 1243q3 -13 17 -61q72 19 136 19q26 0 52 -3 q29 38 47.5 60.5t49.5 52t63 49.5q-7 22 -18 63q-30 8 -59 8q-20 0 -40 -4q-122 -35 -215 -116q-34 -26 -34 -57q0 -5 1 -11zM568 702q4 -84 7 -120q2 -28 17 -70q0 -13 14 -20q95 -58 182 -74q29 -4 43 6q89 44 170 149q-25 110 -53 213q-105 40 -213 78q-25 -23 -52.5 -49 t-61.5 -60zM702 1147q33 -127 56 -211q35 -14 105.5 -41.5t105.5 -40.5q20 19 55 50.5t63.5 58t53.5 51.5v14q-2 69 -43 170q-16 28 -45 43q-88 45 -199 57q-23 -12 -45.5 -31t-36 -34t-36.5 -44t-34 -42zM881 367q5 -21 22 -58q17 -9 47 -9q10 0 21 1q104 14 223 70 q43 21 78 86q0 1 1 4t1 4q-6 47 -27 82q-59 -16 -147 -16q-19 0 -39 1q-69 -100 -180 -165zM1163 1233q56 -107 56 -214v-11q87 -47 147 -119q40 21 72 74q-15 100 -73 186t-138 131q-7 -5 -28.5 -21.5t-35.5 -25.5zM1307 588q11 -28 28 -80q113 162 113 344 q-11 -5 -34.5 -18.5t-35.5 -18.5q-11 -120 -71 -227z" />
<glyph unicode="e" d="M123 856q3 269 176 475q77 88 190 156q27 15 51 15q27 0 48 -19q30 -24 30 -61q0 -32 -24 -56q-4 -4 -27 -18q-214 -133 -268 -365q-15 -69 -14 -134q0 -210 151 -380q58 -61 131 -104q32 -23 39 -39q10 -20 10 -39q0 -25 -18 -49q-15 -20 -39 -27t-47 2q-39 13 -94 57 q-223 168 -281 443q-14 65 -14 123v20zM449 856q9 244 223 361q22 12 43 12q28 0 53 -21q27 -21 27 -58q0 -34 -25 -56q-17 -17 -33 -25q-91 -49 -119 -149q-9 -34 -9 -67q0 -64 36 -124q31 -54 86 -84q31 -18 35 -22q22 -17 27.5 -46t-9.5 -57q-14 -23 -42.5 -33t-51.5 0 q-62 24 -108 70q-76 67 -111 168q-22 56 -22 131zM733 856q0 49 35.5 84t85.5 35t84.5 -34.5t34.5 -84.5q0 -51 -34 -85t-85 -36q-51 0 -86 35t-35 86zM910 562q0 32 24 54q13 13 33 25q129 75 129 214v13q-6 127 -121 197q-3 2 -16 11t-21.5 16t-13.5 16q-13 20 -12 45 t16 45q15 19 39 26.5t47 0.5q56 -19 108 -68q83 -74 117 -178q19 -63 21 -123q-12 -247 -226 -362q-23 -12 -44 -12q-28 0 -52 22q-28 21 -28 58zM1089 287q0 33 25 57q12 12 27 21q215 133 266 368q15 68 15 133q0 207 -152 377q-61 64 -133 105q-40 24 -45 63 q-4 26 8.5 49.5t34.5 34.5q18 7 35 7q23 0 44 -13q190 -109 291 -309q57 -108 72 -232q6 -47 6 -84q-3 -280 -176 -483q-81 -93 -190 -158q-26 -17 -49 -17q-26 0 -50 21q-29 24 -29 60z" />
<glyph unicode="f" d="M209 772q-5 40 -5 80q0 186 101 358q73 -10 121 -22q-1 -4 -2 -11t-2 -10q-56 -143 -62 -315q-3 -38 -3 -77q0 -165 49 -339q7 -41 16 -59v-6q-175 161 -213 401zM350 1262q39 52 94 98q18 1 36 1q65 0 122 -9q63 -10 150 -47q51 -23 102 -78q-45 -9 -126 -25.5 t-114 -23.5q-60 26 -89.5 37.5t-80 26.5t-94.5 20zM414 758v17q0 215 71 392l101 -43l14 -727q-67 -35 -108 -41q-72 207 -78 402zM520 297q2 1 109 47q6 -1 233 -29q-70 -64 -168 -90q-99 25 -174 72zM528 1419q10 4 18.5 8t15.5 8.5t11 6.5q70 33 152 49q2 0 8 1t12 1 t11 -2q60 -12 137 -43q126 -58 192 -162l5 -4v-6q-61 -16 -168 -35q-8 8 -17 14q-41 52 -112 93q-97 52 -226 69q-23 0 -39 2zM645 1120q43 11 66 15q13 3 152 32t210 43q86 17 163 17q26 0 52 -2q78 -7 121 -25q61 -100 80 -207h-43h-27q-153 0 -334 -30q-171 -23 -397 -66 l-33 -4zM655 629q25 0 37 -2q185 -21 334 -21q79 0 148 6q118 6 227 41q37 8 59 23q14 0 21 10q-3 -14 -8 -41q-52 -115 -74 -147q-6 -13 -17 -15q-71 -68 -165 -92q-88 -24 -193 -24q-44 0 -90 4q-51 3 -144 13.5t-118 12.5l-13 4zM655 692v139q11 3 19 5q87 16 245 41 t201 32q176 27 314 27h63q7 -35 7 -76q0 -47 -9 -102q-43 -31 -92 -39q-99 -35 -291 -55q-37 -2 -75 -2q-165 0 -371 28zM815 209q82 47 125 100h139q-26 -33 -47 -49q-2 -2 -20 -14q-30 -35 -80 -35q-101 -6 -103 -6l-5 2q-4 2 -9 2zM926 1501q249 -23 424 -223 q-65 8 -119 8q-39 0 -72 -4q-51 82 -100 129q-41 37 -133 90zM1120 264q5 7 20 26t23 32q71 16 78 18q-51 -51 -121 -76z" />
<glyph unicode="g" d="M209 795q-3 28 -3 56t3 56q1 18 7 49t7 37q2 19 15 58q0 6 8 10q74 86 176 131q64 31 139 43q43 9 96 9q14 0 29 -1h37q-23 -62 -67 -132t-93 -118q-32 4 -51 4q-84 0 -145 -49q-79 -55 -129 -162q-11 -30 -23 -49q-1 9 -3 29t-3 29zM238 664q30 88 65 149q5 3 8 8 q79 -227 258 -381q180 -154 408 -209q-6 -1 -12 -2.5t-11 -3t-8 -2.5q-45 -7 -95 -7q-32 0 -67 3q-122 17 -211 57q-84 40 -145 95q-73 63 -117 133q-46 74 -69 145q-4 4 -4 15zM301 1184q11 35 77 103.5t124 103.5q129 81 276 96q-14 -119 -35 -184q-14 1 -41 2t-40 2h-11 q-165 0 -301 -88q-23 -13 -49 -35zM354 868q39 42 91 62q36 13 68 13q15 0 30 -3q118 -222 325 -356q216 -135 463 -135q-18 -27 -22 -31q-93 -96 -207 -146q-10 -7 -31 -2q-205 23 -385 140q-100 71 -156 137q-83 89 -135 205q-23 50 -39 110q-2 2 -2 6zM606 954 q103 109 162 248q50 132 66 287q13 1 27 1q108 0 218 -44q0 -78 -6 -121q-11 -87 -57 -223q-53 -133 -135 -230q-58 -67 -131 -116q-5 0 -7 -2q-83 86 -137 200zM791 711q7 5 24 18t27 19q58 52 100 108q92 117 141 268q25 60 37 123q17 69 17 152q-3 0 -1 9l1 9 q6 -3 20.5 -10t20.5 -10q65 -41 135 -111q56 -73 78 -108q4 -4 4 -15q-3 -43 -9 -96q-15 -103 -59 -199q-70 -161 -199 -264q-11 -9 -35 -26t-34 -25q-154 61 -268 158zM1124 535q132 89 213 235q77 133 105 299q31 -76 38 -169q1 -19 1 -39q0 -76 -20 -160 q-25 -106 -83 -195q-19 -1 -39 -1q-112 0 -215 30z" />
<glyph unicode="h" d="M215 731q-12 64 -12 126q0 95 28 187q58 183 207 308q-30 -121 -30 -240q0 -191 77 -379q-58 -11 -110 -11q-12 0 -23 1q-94 4 -137 8zM231 662q61 -6 120 -6q277 0 519 135q155 -33 308 -123q-78 -66 -117 -93q-74 -59 -195 -116q-130 -53 -166 -62q-50 -12 -112 -24 t-98 -17l-37 -6q-50 33 -95 82q-51 56 -96 148q-28 69 -31 82zM467 1171q6 134 39 232q134 92 330 102q-54 -162 -54 -324t54 -325q-128 -75 -293 -117q-6 19 -21 64.5t-22 70.5q-13 34 -25 122q-9 66 -9 131q0 22 1 44zM520 297q219 41 381 111q195 97 324 231 q40 -30 166 -152q-131 -192 -361 -258q-90 -24 -178 -24q-171 0 -332 92zM852 1180v22q0 136 57 301q174 -12 318 -117q181 -129 248 -344q-22 9 -58.5 30.5t-54.5 29.5q-44 24 -132.5 48.5t-174.5 31.5q-46 4 -92 4q-55 0 -111 -6zM854 1118q6 1 31 3.5t37 2.5q13 0 34.5 1 t38.5 1t33 -2q64 -3 121 -12q92 -19 170 -57q65 -27 137 -66q19 -12 39 -20q9 -56 9 -110q0 -163 -79 -312q-214 236 -516 309q-4 20 -12.5 52.5t-11.5 47.5q-12 43 -23 113q-8 18 -8 49z" />
<glyph unicode="i" d="M168 573v564q0 33 10 55q42 -35 291.5 -242.5t380.5 -318.5q113 94 338 280.5t338 280.5q10 -25 10 -59v-435q0 -96 -2 -147q-3 -58 -46 -104t-102 -54q-16 -2 -98 -2h-938h-6q-62 0 -112 40q-52 42 -60 106q-4 24 -4 36zM229 1274q59 41 109 41l883 2q96 0 145 -2 q55 0 109 -41q-84 -71 -625 -522q-120 102 -342.5 288.5t-278.5 233.5z" />
<glyph unicode="j" d="M213 956q46 10 53 11q166 21 341 21q40 0 81 -1q236 -10 418 -69q88 -26 158 -72q-5 -53 -29 -119q-55 14 -100 14h-15q-165 -7 -284 -69q-168 -79 -326 -107q-7 -2 -201 -30q-6 -3 -20 -3q-84 149 -84 317q0 52 8 107zM223 1012q19 82 60 151q93 173 276 273q30 13 59 6 q162 -42 289 -133q59 -40 142 -135q97 -122 211 -168q0 -4 8 -9q4 -51 6 -92q-8 2 -15.5 5.5t-11.5 4.5q-150 78 -370 109q-135 18 -275 18q-245 -4 -371 -30h-8zM322 483q108 14 131 17q234 40 393 118q139 66 276 72q57 0 92 -16q-52 -99 -108 -160q-132 -141 -309 -244 q-54 -34 -86 -49q-240 54 -389 262zM688 1481q85 23 169 23q72 0 142 -17q187 -187 254 -420q-41 18 -84 61q-67 59 -96 99q-145 192 -371 250q-2 0 -14 4zM799 207q4 2 15 8t15 8q189 109 291 209q86 80 137 182q3 11 15 23q37 -52 46 -115q3 -27 3 -54q0 -35 -6 -69 q-190 -193 -466 -193q-20 0 -40 1h-10zM1108 1452q68 -10 171.5 -107t147.5 -186q-33 -57 -118 -102q-48 212 -201 395zM1294 692q4 21 29 123q40 -26 59 -39t49.5 -37t51.5 -47q-30 -119 -107 -221q-7 146 -82 221zM1321 1001q83 31 135 97q47 -120 47 -245q0 -46 -6 -93 q-38 28 -170 114q0 2 -6 127z" />
<glyph unicode="k" d="M202 827q-1 15 0 29q0 110 42 225q48 130 151 230q21 -38 35 -78q-35 -19 -44 -29.5t-3 -27.5q6 -19 19 -23t53 0q9 -42 20 -86q-13 -4 -35 -8q-12 -3 -20.5 -15.5t-7.5 -25.5q4 -28 37 -31h36q3 -48 9 -94q-7 -2 -24 -4.5t-24 -5t-14 -11t-8 -22.5q0 -18 15 -27.5 t53 -12.5q-5 -72 -5 -85q-10 -1 -19.5 -0.5t-18 -0.5t-15 -3.5t-11 -10.5t-5.5 -20q-3 -18 9 -29t48 -20q-7 -25 -20 -84q-7 -1 -19.5 -1t-22.5 -1t-18 -4q-1 0 -14 -19q-5 -19 6 -31.5t43 -25.5q-12 -32 -33 -76q-87 76 -138 190t-57 238zM463 336q27 53 51 108 q18 -3 39 -6q33 12 33 39q0 13 -7 22t-14.5 13t-23.5 10q3 19 10 55t10 54q10 -2 27 -2q27 -3 41 28q7 32 -21 41q-17 10 -35 13q1 16 3.5 49t3.5 50q37 8 49 15.5t12 26.5q-1 10 -4 17t-11.5 11t-12.5 5.5t-17.5 4.5t-15.5 3q-1 17 -3.5 50.5t-3.5 51.5q3 2 22 8.5t23 18.5 q11 14 7 29q-3 7 -7.5 12t-8 7.5t-11 3.5t-10.5 1h-13h-12q-4 19 -12 55t-12 56q4 2 12 5.5t12 5.5t11 7t8 9t3.5 12t-1.5 16q-4 14 -13 20.5t-15.5 7t-21.5 -1t-20 -1.5q-36 78 -49 104q165 130 385 130h6q224 -2 385 -134q-8 -16 -23.5 -51t-23.5 -51q-38 7 -53 2.5 t-21 -25.5q-6 -18 4 -30t43 -27q-2 -12 -9.5 -49t-10.5 -60h-29q-34 -3 -37 -31q-3 -31 27 -43q11 0 29 -6q-6 -53 -9 -96q-47 -12 -55 -22q-8 -6 -8 -27q0 -17 13.5 -26t49.5 -14q3 -49 9 -97q-7 -3 -20 -5.5t-22.5 -7t-13.5 -14.5q-4 -17 -2 -29q2 -28 43 -28q10 0 23 2 q3 -18 11 -53t11 -50q-36 -25 -45 -36.5t0 -28.5q9 -23 30.5 -23t41.5 9q34 -77 47 -107q-97 -84 -235 -118q-75 -18 -152 -19q-66 -1 -133 13q-147 28 -258 118zM1217 810q4 1 13.5 2t14 2t12 4t11 7.5t7 11.5t3.5 17q-2 15 -11.5 23t-19.5 10.5t-30 5.5q4 60 8 94 q4 0 16 0.5t17.5 1.5t14 4t13 11t6.5 20q-1 21 -15.5 29t-43.5 12q3 15 10 44.5t10 43.5q32 -5 37 -6q33 8 33 37q1 18 -10.5 28t-36.5 19q6 14 17 37.5t16 36.5q120 -113 166 -277q24 -86 24 -172q-1 -80 -21 -161q-42 -169 -167 -289q-22 32 -31 71q30 17 38 29t3 31 q-8 15 -20.5 18.5t-47.5 -0.5q-1 3 -8.5 36t-9.5 50q32 10 42.5 21t8.5 32q-2 15 -14 21.5t-47 9.5q-1 12 -4 40t-4 45z" />
<glyph unicode="n" d="M205 852q0 175 87 324t236 236t324 87q176 0 325.5 -87t236.5 -236t87 -324t-87 -324t-236.5 -236t-325.5 -87q-175 0 -324 87t-236 236t-87 324zM545 784h241v-239h134v239h241v136h-241v239h-134v-239h-241v-136z" />
<glyph unicode="o" d="M184 668v604q0 75 54 129.5t129 54.5h970q75 0 129 -54.5t54 -129.5v-604q0 -76 -54 -130.5t-129 -54.5h-424v-118h179q24 0 40.5 -17t16.5 -39q0 -25 -16 -42t-41 -17h-482q-23 0 -39 17t-16 42q0 22 16 39t39 17h181v118h-424q-75 0 -129 54.5t-54 130.5zM297 668 q0 -28 20.5 -49t49.5 -21h970q29 0 48.5 21t19.5 49v604q0 28 -19.5 48.5t-48.5 20.5h-970q-29 0 -49.5 -20.5t-20.5 -48.5v-604z" />
<glyph unicode="p" d="M246 1139v75q0 43 43 43h278v105q0 5 6 47q11 64 76 82q42 10 74 10h274q22 0 58 -8q51 -9 67 -63q12 -31 15 -84v-89h278q45 0 45 -47v-69q0 -21 -12 -33t-33 -12h-1128q-19 0 -30 12t-11 31zM408 250v764h159v-604q0 -18 13.5 -30.5t29.5 -12.5q16 2 28 12t13 24v13 v598h160v-606q0 -16 13.5 -28.5t27.5 -12.5q18 0 29.5 11.5t11.5 29.5v606h162v-604q0 -22 16 -35q22 -12 41 -4q25 6 25 35v608h161v-764q0 -34 -32 -45h-11h-804q-43 0 -43 45zM733 1260h240v79h-240v-79z" />
<glyph unicode="q" d="M670 623l233 233l-233 234l67 67l301 -301l-301 -301z" />
<glyph unicode="r" d="M154 1096v137q0 34 16 55q27 35 72 35h176q-1 32 -1 54.5t1 35.5q3 65 61 82q20 4 33 4h340h342q13 0 33 -4q56 -17 59 -82l2 -90h176q46 0 70 -35q14 -19 18 -55v-137q0 -157 -71 -244q-43 -62 -102.5 -93.5t-112.5 -37.5q-12 0 -19 -10q-7 -23 -34 -65t-60 -73 q-88 -83 -207 -112q-10 0 -10 -12v-62q0 -10 10 -10q96 0 119 -6q51 -12 86 -47q16 -18 27 -39t14 -33t5.5 -29t2.5 -18h-348h-348q0 1 2.5 18t6 29t14.5 33t28 39q32 34 84 47q23 6 119 6q12 0 12 10v62q0 12 -10 12q-119 29 -207 112q-33 32 -61 74t-35 64q-7 10 -19 10 q-52 5 -111 37t-104 94q-69 84 -69 244zM326 1141q0 -108 8 -137q9 -31 31.5 -61.5t52.5 -39.5v238q0 7 -1.5 8.5t-10.5 1.5h-70q-10 0 -10 -10zM588 879q0 -61 25.5 -111t63 -78t67.5 -42.5t51 -18.5q24 -8 57 -8q32 0 59 8q21 4 50.5 18.5t66.5 42.5t62.5 78t25.5 111v430 v2q0 12 -2 14t-14 2h-248h-246q-14 0 -16 -2t-2 -14v-2v-430zM1286 903q30 9 52.5 39.5t31.5 61.5q5 15 7 37t2 37.5t-0.5 37t-0.5 25.5q0 7 -1 8.5t-9 1.5h-70h-6t-3.5 -1t-2 -3t-0.5 -6v-238z" />
<glyph unicode="s" d="M180 860q0 204 139 371q25 -4 25 -33l-2 -129q0 -4 -2 -6l-84 -250q-8 -12 -14 -16l-54 -21q-8 39 -8 84zM193 741q38 19 55 19q14 0 24 -10l113 -179q6 -3 6 -16l2 -152q-155 137 -200 338zM287 795q0 1 1 4.5t1 5.5l84 231q7 16 22 19l154 16h4q16 0 22 -12l103 -172 q4 -2 4 -15v-10l-74 -219q-6 -17 -28 -20l-152 -25h-4q-17 0 -25 12l-104 168q-8 3 -8 17zM348 1262q58 66 112.5 109.5t129.5 78.5l6 -4q0 -5 -3.5 -11t-6.5 -9l-4 -3l-195 -153q-10 -8 -39 -8zM387 1122v97q0 20 91 91.5t108 71.5q20 0 56 -34.5t36 -47.5q0 -8 -4 -16 q-6 -10 -22 -36t-28.5 -47t-27.5 -43.5t-26.5 -35t-18.5 -12.5q-11 -1 -61.5 -7.5t-75.5 -6.5q-11 0 -19 8t-8 18zM428 539q0 11 7.5 21t19.5 11q27 2 82.5 10.5t66.5 8.5q6 0 14 -4l197 -125q6 -3 11 -10.5t5 -12.5l5 -151v-4q0 -40 -113 -60q-66 0 -147 45t-144 97 q-4 122 -4 174zM602 1104q0 10 4 16q2 4 35.5 59.5t56 84t37.5 28.5q175 15 234 15q12 0 22 -13l103 -170q4 -8 4 -14t-4 -14l-103 -181q-6 -11 -22 -14l-226 -10h-6q-13 0 -74 93t-61 120zM627 1413q0 20 19 38.5t72.5 34t133.5 15.5q223 0 223 -80q0 -10 -8 -18l-66 -45 q-10 -10 -20 -10l-242 -15q-10 0 -19 3t-21.5 11.5t-18.5 13t-23.5 19.5t-21.5 19q-8 4 -8 14zM641 629q0 6 2 12l70 193q12 24 26 24l213 8q25 0 31 -24l57 -201v-10q0 -15 -10 -25l-168 -117q-6 -4 -14 -4q-13 0 -17 4l-178 113q-12 9 -12 27zM786 209q20 20 66 20 q26 0 84 -20q-29 -4 -84 -4q-46 0 -66 4zM866 442q0 14 98 85t117 71q67 0 128.5 -11.5t64.5 -33.5l6 -111q0 -2 -4 -10q-7 -23 -28.5 -64.5t-35.5 -50.5q-3 -2 -28.5 -18t-34.5 -21t-32 -17.5t-36 -17.5t-31.5 -9.5t-33.5 -4.5q-51 0 -98.5 15t-47.5 39q-4 98 -4 159z M1014 874q0 9 4 13l104 180q6 16 23 16h4l147 -16q26 -3 29 -18l76 -215l2 -7q0 -5 -1 -11l-1 -5l-119 -182l-5.5 -5.5t-6.5 -5.5t-7 -4t-8 -2h-2l-153 25q-16 7 -23 20l-61 209q-2 6 -2 8zM1026 1309q0 18 8 30l51 35q5 8 17 8q6 0 18 -6l183 -125q12 -9 12 -24v-90 q0 -13 -11 -21t-24 -8l-127 12q-10 0 -20 13l-103 163q-4 4 -4 13zM1110 1434l2 12q72 -30 124.5 -71t115.5 -109l-2 -2q-7 0 -15 2t-12 4l-4 2l-201 137q-8 11 -8 25zM1270 356q-4 4 20 43q28 28 43 31q-6 -18 -26 -41.5t-37 -32.5zM1312 528.5q0 14.5 0.5 35.5t0.5 24 q0 6 2 8l117 186q3 9 14 9q4 0 10 -3q7 -4 27.5 -14t27.5 -14q-7 -38 -22 -86t-37.5 -98.5t-54.5 -84.5t-66 -34q-7 0 -11.5 10t-6 28.5t-1.5 33zM1352 1077v121q0 14 7.5 23.5t16.5 9.5h6q67 -78 103.5 -185.5t36.5 -195.5q0 -32 -6 -53l-60 28q-9 5 -12 13l-86 221 q-2 4 -6 18z" />
<glyph unicode="t" d="M210 937q22 162 118 294q100 138 249 207q134 62 273 62h30q154 -8 287 -83l-372 -522l-154 174l-180 -174l323 -371q435 403 652 606q36 -70 52 -158q11 -60 10 -125q0 -31 -2 -61q-7 -98 -53.5 -201t-129.5 -188q-117 -119 -273 -166q-93 -28 -187 -28q-65 -1 -130 13 q-160 32 -287 138q-130 110 -189 266q-43 114 -43 231q0 43 6 86z" />
<glyph unicode="u" d="M205 852q1 135 53.5 256.5t140.5 207.5q89 84 207 134q116 49 241 49h5q130 0 249 -51t205.5 -136.5t138 -204.5t52.5 -249v-5q0 -129 -49 -247q-50 -120 -136 -208t-208 -140q-119 -51 -251 -51h-5q-176 0 -324 86t-233.5 234.5t-85.5 324.5zM428 946q1 -1 49 -43 q102 -89 207 -180q4 -5 21 -10q20 -4 31.5 6.5t11.5 32.5q2 0 1 38l-1 37v21h14q61 -5 65 -6q99 -17 177 -58q69 -43 92 -88q17 -30 17 -66q0 -14 -3 -28q-8 -34 -39 -65q-33 -38 -92 -70q-9 -5 -10 -6q-19 -9 -13 -27q10 -19 31 -10q105 38 176 96q69 53 103 117 q24 52 24 101q0 40 -16 77q-25 69 -88 125q-93 81 -238 129q-87 26 -200 39v25v71q0 28 -23 37q-22 11 -41 -8q-5 -4 -13 -11t-12 -10q-129 -112 -231 -204q-20 -16 -20 -31t20 -31z" />
<glyph unicode="v" d="M176 267q4 42 43 83v1012q-43 28 -43 85v7q3 42 37 66q25 24 60 24h9q41 -4 72 -35q17 -18 23.5 -42t-3 -53.5t-38.5 -51.5v-1014q29 -24 38.5 -55t2.5 -56.5t-23 -41.5q-32 -33 -75 -33h-1q-42 0 -73 31q-29 29 -29 65v9zM412 594v752q131 86 229 102q27 4 53 4l201 -57 q112 -62 137 -76q73 -39 144 -39h10q70 0 157 41q83 46 144 96q1 1 5 3.5t9 4.5v-747q-2 -2 -8.5 -6.5t-9.5 -7.5q-86 -69 -164 -103q-69 -30 -137 -30q-78 0 -154 40q-67 35 -149 84q-84 48 -175 48q-10 0 -20 -1q-76 -2 -174 -47q-44 -30 -84 -51q-9 -3 -14 -10z" />
<glyph unicode="w" d="M668 852l303 301l67 -68l-235 -233l235 -234l-67 -67z" />
<glyph unicode="x" d="M208 900q10 108 50 200q22 -12 62.5 -36.5t48.5 -29.5q-35 -92 -36 -184q0 -101 44 -201q62 -149 198 -235q86 -54 184 -72q51 -9 99 -9q44 0 86 8q86 16 160 58q-22 23 -46.5 47.5t-55.5 55t-48 47.5h2h375v-375q-22 23 -66 66.5t-65 66.5q-169 -101 -346 -101 q-77 0 -154 19q-207 49 -346 217q-84 102 -120 226q-28 98 -29 186q1 23 3 46zM373 1155v375l2 2q14 -15 60 -61.5t71 -73.5q165 101 341 102q59 0 118 -12q214 -37 364 -199q93 -102 135 -230q35 -108 35 -208q-1 -18 -1 -36q-8 -116 -54 -218q-50 27 -111 63 q38 98 37.5 194t-37.5 191q-56 148 -190 238q-84 57 -182 77q-57 12 -111 12q-40 -1 -78 -7q-92 -14 -170 -59q21 -23 45.5 -47.5t56 -55t48.5 -47.5h-379z" />
<glyph unicode="y" d="M182 463q193 201 289 303q11 -2 23 -14q16 -16 16 -47v-84q0 -3 1 -11t1 -10q9 -22 31 -22q14 3 22 8q23 5 80 22q13 5 25 5q24 0 43 -19q10 -11 27.5 -35.5t23.5 -32.5q-56 -60 -311 -333v270h-271zM403 1173.5q-1 10.5 6 18.5t21 12t41.5 13.5t40.5 13.5q53 15 53 69 v91q0 19 11 27.5t30 4.5q23 -8 84 -26q17 -5 31 -5q23 0 39 13q8 5 14 18q32 36 49 64q3 9 13 14q19 16 38 0q1 -3 5.5 -6.5t5.5 -5.5q10 -15 28 -38.5t25 -33.5q11 -16 32 -23t44 -1q72 25 88 30q19 5 31 -3.5t12 -28.5v-93q0 -24 13 -41.5t34 -23.5q12 -4 39 -13.5 t43 -13.5q1 0 3 -1t3 -1q20 -6 25 -21t-7 -30q-44 -62 -51 -72q-18 -21 -18 -43.5t18 -46.5q29 -42 51 -67q12 -17 6.5 -33.5t-26.5 -20.5q-29 -13 -84 -28q-49 -18 -49 -70v-90q0 -20 -12 -28.5t-31 -2.5q-18 3 -47.5 14t-36.5 13q-16 5 -29 5q-19 0 -33 -11 q-13 -7 -16 -17q-31 -39 -55 -73q-1 -1 -5.5 -4.5t-5.5 -4.5q-9 -9 -20.5 -9t-19.5 9q-5 6 -16 20t-19 23q-20 30 -29 39q-9 16 -31 23t-43 0q-13 -3 -43 -13t-47 -14q-41 -10 -41 29v49v45q0 49 -47 68q-14 4 -43 13t-43 13q-20 4 -26 21.5t6 34.5q41 52 55 73 q14 20 14 39.5t-14 38.5q-17 28 -55 76q-8 12 -9 22.5zM944 526q36 51 47 64q20 24 45 24q13 0 27 -6q14 -4 40.5 -11.5t37.5 -10.5q2 -2 10 -6q21 -5 33 4.5t12 31.5q2 22 2 44.5t-2 44.5q0 32 18 47q6 8 17 16q49 -51 146.5 -152.5t146.5 -152.5h-271v-268h-2 q-232 248 -307 331z" />
<glyph unicode="z" d="M162 991q-3 26 11 42.5t42 19.5l401 57q126 252 181 367q20 34 55 34q30 0 53 -34l178 -365q382 -57 402 -59q42 -3 53 -39q2 -8 2 -15q0 -24 -24 -49l-289 -278q51 -303 69 -414q6 -31 -22 -53q-28 -18 -57 -2l-367 192q-248 -131 -361 -188q-20 -11 -36 -11 q-21 0 -35 19q-16 20 -12 53l67 402q-201 198 -287 280q-24 24 -24 41z" />
<glyph unicode="{" d="M176 850q0 139 53.5 265t144 217t215 144.5t261.5 53.5q139 0 265 -53.5t217 -144.5t144.5 -217t53.5 -265q0 -137 -53.5 -261.5t-144.5 -215t-217 -144t-265 -53.5q-182 0 -337.5 90.5t-246 246t-90.5 337.5zM229 850q0 -125 49.5 -240t133 -198.5t198.5 -133t240 -49.5 q170 0 314.5 84t228.5 227t84 310q0 170 -84 314.5t-228.5 228.5t-314.5 84q-167 0 -310 -84t-227 -228.5t-84 -314.5zM524 786l41 39l152 -151l434 424l39 -41l-471 -461z" />
<glyph unicode="}" d="M176 852q0 137 53.5 262.5t144 216t216 144t262.5 53.5t262.5 -53.5t216 -144t144 -216t53.5 -262.5t-53.5 -262.5t-144 -216t-216 -144t-262.5 -53.5t-262.5 53.5t-216 144t-144 216t-53.5 262.5zM229 852q0 -169 83.5 -312.5t227 -227t312.5 -83.5t312.5 83.5t227 227 t83.5 312.5t-83.5 312.5t-227 227t-312.5 83.5t-312.5 -83.5t-227 -227t-83.5 -312.5zM557 1106l37 39l258 -256l256 270l39 -37l-256 -270l256 -254l-37 -39l-258 254l-254 -268l-37 37l254 268z" />
<glyph unicode="&#xad;" d="M477 819v68h748v-68h-748z" />
<glyph unicode="&#x2000;" horiz-adv-x="809" />
<glyph unicode="&#x2001;" horiz-adv-x="1618" />
<glyph unicode="&#x2002;" horiz-adv-x="809" />
<glyph unicode="&#x2003;" horiz-adv-x="1618" />
<glyph unicode="&#x2004;" horiz-adv-x="539" />
<glyph unicode="&#x2005;" horiz-adv-x="404" />
<glyph unicode="&#x2006;" horiz-adv-x="269" />
<glyph unicode="&#x2007;" horiz-adv-x="269" />
<glyph unicode="&#x2008;" horiz-adv-x="202" />
<glyph unicode="&#x2009;" horiz-adv-x="323" />
<glyph unicode="&#x200a;" horiz-adv-x="89" />
<glyph unicode="&#x2010;" d="M477 819v68h748v-68h-748z" />
<glyph unicode="&#x2011;" d="M477 819v68h748v-68h-748z" />
<glyph unicode="&#x2012;" d="M477 819v68h748v-68h-748z" />
<glyph unicode="&#x2013;" horiz-adv-x="1981" d="M477 819v68h1024v-68h-1024z" />
<glyph unicode="&#x2014;" horiz-adv-x="3005" d="M477 819v68h2048v-68h-2048z" />
<glyph unicode="&#x202f;" horiz-adv-x="323" />
<glyph unicode="&#x205f;" horiz-adv-x="404" />
<glyph unicode="&#x25fc;" horiz-adv-x="1536" d="M0 0v1536h1536v-1536h-1536z" />
</font>
</defs>
</svg>
